:SAMPLES-PER-SECOND 30
:FULLY-SPECIFIED
:DEGREES
266
root  27.7506 36.4979 -3.36285 44.4869 83.9718 59.1101
RightUpLeg  -26.7257 -3.56408 -4.75257
RightLeg  30.7348 -6.79323 -4.70625
RightFoot  -2.56149 -0.393834 4.9184
RightToes  -4.65663e-010 0 -3.6325e-017
Spine  24.503 -3.69008 -5.88938
Spine1  9.6947 -7.44092 7.40057
HEad  8.24212 -5.67888 5.69062
LeftShoulder1  7.90767 -13.1051 -41.2827
LeftArm  -6.7367 -8.35532 -41.1019
LeftForeArm  54.3403 -52.9468 -10.5609
LeftHand  -0.244104 0.0205437 5.32207
RightShoulder  3.95116 8.00492 28.3323
RightArm  -1.4237 -25.5533 36.928
RightForeArm  13.4933 56.3312 15.8926
RightHand  -2.75125 6.62528 -26.4241
LeftUpLeg  -4.74628 9.91154 -12.5282
LeftLeg  42.5183 6.71471 6.94833
LeftFoot  -22.9114 0.750626 6.03476
LeftToes  -5.82109e-011 -4.83791e-012 -1.00937e-011
267
root  29.8644 36.999 -3.45635 36.176 83.2751 49.8861
RightUpLeg  -24.5353 -12.1171 -0.361329
RightLeg  19.4118 -2.37989 -0.761389
RightFoot  -1.6626 -0.491587 5.67636
RightToes  -4.65663e-010 0 -3.6325e-017
Spine  21.4871 -3.88608 -6.60361
Spine1  9.56761 -8.10793 9.3837
HEad  10.8588 -6.27031 4.60443
LeftShoulder1  7.74097 -13.1547 -40.2081
LeftArm  -4.41506 -11.5296 -43.7788
LeftForeArm  54.1399 -59.4176 -14.0703
LeftHand  -0.244104 0.0205437 5.32207
RightShoulder  3.78345 7.88229 27.1949
RightArm  -0.0874023 -26.7125 37.7475
RightForeArm  9.58044 57.5521 17.1146
RightHand  -2.93986 7.19033 -26.9586
LeftUpLeg  0.225962 10.8767 -12.1947
LeftLeg  37.8196 7.39403 6.49632
LeftFoot  -23.6212 0.76985 5.83019
LeftToes  -5.82109e-011 -4.83791e-012 -1.00937e-011
268
root  32.0478 37.3899 -3.49509 26.8237 82.4002 39.6792
RightUpLeg  -22.0895 -17.3263 2.53614
RightLeg  13.2836 -5.3272 0.996218
RightFoot  -2.23012 -0.472873 5.7493
RightToes  -4.65663e-010 0 -3.6325e-017
Spine  18.6707 -4.08597 -7.33478
Spine1  8.63149 -8.80879 11.9023
HEad  14.0652 -6.62246 2.84316
LeftShoulder1  7.4499 -12.7001 -39.7419
LeftArm  -1.88697 -13.8602 -44.7188
LeftForeArm  60.3555 -65.3825 -18.2237
LeftHand  -0.244104 0.0205437 5.32207
RightShoulder  3.5999 7.56862 26.455
RightArm  0.938431 -28.0617 37.8373
RightForeArm  8.08879 58.0628 17.6386
RightHand  -2.68739 6.3757 -26.351
LeftUpLeg  5.17706 12.5948 -11.1464
LeftLeg  33.4782 7.55631 5.71798
LeftFoot  -24.0734 0.723919 5.18807
LeftToes  -5.82109e-011 -4.83791e-012 -1.00937e-011
269
root  34.3011 37.6064 -3.50327 18.855 81.6014 30.3886
RightUpLeg  -19.3899 -17.9596 3.20931
RightLeg  11.1041 -15.5401 2.0424
RightFoot  -3.81128 -0.394129 5.58142
RightToes  -4.65663e-010 0 -3.6325e-017
Spine  15.4419 -4.65714 -7.4704
Spine1  7.41091 -9.58458 13.9822
HEad  17.0701 -6.73605 1.06084
LeftShoulder1  7.12394 -12.2583 -39.0006
LeftArm  -0.330764 -15.2832 -44.7814
LeftForeArm  66.8316 -70.0639 -23.2197
LeftHand  -0.244104 0.0205437 5.32207
RightShoulder  3.45959 7.24422 26.1169
RightArm  1.12513 -29.6805 37.6654
RightForeArm  9.24885 57.8248 17.3501
RightHand  -2.29649 5.17653 -25.1367
LeftUpLeg  9.37849 14.9353 -9.34148
LeftLeg  30.1066 6.44438 4.3874
LeftFoot  -23.9861 0.580565 3.93361
LeftToes  -5.82109e-011 -4.83791e-012 -1.00937e-011
270
root  36.567 37.6682 -3.46111 16.0225 81.1638 25.5981
RightUpLeg  -18.12 -20.6311 4.31669
RightLeg  11.7788 -20.622 1.92472
RightFoot  -4.88474 -0.201106 2.97097
RightToes  -4.65663e-010 0 -3.6325e-017
Spine  11.5828 -5.65628 -7.85318
Spine1  6.38657 -10.748 16.0739
HEad  19.4976 -6.97907 -0.103527
LeftShoulder1  6.87189 -12.0482 -38.0343
LeftArm  -0.261005 -15.8726 -44.1534
LeftForeArm  71.8993 -73.4932 -29.0901
LeftHand  -0.244104 0.0205437 5.32207
RightShoulder  3.33095 6.89278 25.961
RightArm  1.03726 -31.4292 37.326
RightForeArm  9.8058 56.9667 16.6762
RightHand  -2.16283 4.84006 -24.4736
LeftUpLeg  12.296 17.7195 -7.19231
LeftLeg  28.1971 3.64971 2.47713
LeftFoot  -23.1287 0.38573 2.40458
LeftToes  -5.82109e-011 -4.83791e-012 -1.00937e-011
271
root  38.7422 37.626 -3.37061 12.5855 80.7404 20.4496
RightUpLeg  -19.0382 -24.8045 6.89736
RightLeg  15.3262 -18.6135 -0.0269268
RightFoot  -5.40989 0.202472 -4.62684
RightToes  -4.65663e-010 0 -3.6325e-017
Spine  8.48458 -6.65584 -8.07744
Spine1  5.65946 -11.9291 18.2341
HEad  20.6338 -7.65078 -0.450383
LeftShoulder1  6.74751 -11.8339 -37.8489
LeftArm  -1.22123 -16.5507 -42.4799
LeftForeArm  76.7135 -75.848 -35.1337
LeftHand  -0.244104 0.0205437 5.32207
RightShoulder  3.23978 6.5094 26.2921
RightArm  0.614138 -32.4445 36.5413
RightForeArm  9.16163 55.3673 15.6671
RightHand  -2.13162 4.8069 -24.2029
LeftUpLeg  14.2854 21.5974 -3.5548
LeftLeg  29.1876 -0.96887 -0.274305
LeftFoot  -21.3546 0.134651 0.0986815
LeftToes  -5.82109e-011 -4.83791e-012 -1.00937e-011
272
root  40.7322 37.4756 -3.2896 2.1478 78.8893 9.23264
RightUpLeg  -21.4828 -27.7064 11.6807
RightLeg  21.1418 -13.3912 -4.25463
RightFoot  -6.14956 0.608625 -14.2921
RightToes  -4.65663e-010 0 -3.6325e-017
Spine  7.34391 -6.83732 -6.49958
Spine1  5.26716 -12.1599 19.4612
HEad  20.1442 -8.54307 -0.164977
LeftShoulder1  6.77617 -11.5849 -38.7242
LeftArm  -2.74665 -17.8091 -39.7942
LeftForeArm  79.7886 -76.9441 -38.9248
LeftHand  -0.244104 0.0205437 5.32207
RightShoulder  3.31503 6.36916 27.5475
RightArm  -1.3695 -31.6967 35.599
RightForeArm  8.93691 51.7623 13.6487
RightHand  -2.02513 4.57664 -23.5513
LeftUpLeg  15.059 25.8705 2.02632
LeftLeg  34.8511 -5.63008 -3.88627
LeftFoot  -16.9522 -0.0719825 -4.00932
LeftToes  -5.82109e-011 -4.83791e-012 -1.00937e-011
